<mxfile host="app.diagrams.net" modified="2022-08-20T14:17:48.621Z" agent="5.0 (X11; Linux x86_64) AppleWebKit/537.36 (KHTML, like Gecko) Chrome/104.0.0.0 Safari/537.36" etag="W1LEJnAt2BCE1eUuvpgB" version="20.2.5" type="github">
  <diagram name="Page-1" id="edf60f1a-56cd-e834-aa8a-f176f3a09ee4">
    <mxGraphModel dx="948" dy="533" grid="1" gridSize="10" guides="1" tooltips="1" connect="1" arrows="1" fold="1" page="1" pageScale="1" pageWidth="1100" pageHeight="850" background="none" math="0" shadow="0">
      <root>
        <mxCell id="0" />
        <mxCell id="1" parent="0" />
        <mxCell id="60e70716793133e9-31" style="edgeStyle=orthogonalEdgeStyle;rounded=0;html=1;labelBackgroundColor=none;startSize=5;endArrow=classicThin;endFill=1;endSize=5;jettySize=auto;orthogonalLoop=1;strokeWidth=1;fontFamily=Verdana;fontSize=8;entryX=0.5;entryY=0;entryDx=0;entryDy=0;" parent="1" source="60e70716793133e9-2" target="60e70716793133e9-9" edge="1">
          <mxGeometry relative="1" as="geometry" />
        </mxCell>
        <mxCell id="60e70716793133e9-2" value="&lt;b&gt;&lt;font style=&quot;font-size: 12px;&quot;&gt;submit&lt;/font&gt;&lt;/b&gt;" style="shape=trapezoid;whiteSpace=wrap;html=1;rounded=0;shadow=1;labelBackgroundColor=none;strokeWidth=1;fontFamily=Verdana;fontSize=8;align=center;flipV=1;" parent="1" vertex="1">
          <mxGeometry x="100" y="120" width="120" height="60" as="geometry" />
        </mxCell>
        <mxCell id="QsFlmGTLFdpribKX7LvX-36" style="edgeStyle=orthogonalEdgeStyle;rounded=0;orthogonalLoop=1;jettySize=auto;html=1;entryX=0.561;entryY=-0.075;entryDx=0;entryDy=0;entryPerimeter=0;fontSize=12;" edge="1" parent="1" source="60e70716793133e9-5" target="QsFlmGTLFdpribKX7LvX-5">
          <mxGeometry relative="1" as="geometry" />
        </mxCell>
        <mxCell id="QsFlmGTLFdpribKX7LvX-37" value="yes" style="edgeLabel;html=1;align=center;verticalAlign=middle;resizable=0;points=[];fontSize=12;" vertex="1" connectable="0" parent="QsFlmGTLFdpribKX7LvX-36">
          <mxGeometry x="-0.4577" y="-2" relative="1" as="geometry">
            <mxPoint y="-12" as="offset" />
          </mxGeometry>
        </mxCell>
        <mxCell id="QsFlmGTLFdpribKX7LvX-39" style="edgeStyle=orthogonalEdgeStyle;rounded=0;orthogonalLoop=1;jettySize=auto;html=1;fontSize=12;" edge="1" parent="1" source="60e70716793133e9-5" target="QsFlmGTLFdpribKX7LvX-17">
          <mxGeometry relative="1" as="geometry" />
        </mxCell>
        <mxCell id="QsFlmGTLFdpribKX7LvX-40" value="no" style="edgeLabel;html=1;align=center;verticalAlign=middle;resizable=0;points=[];fontSize=12;" vertex="1" connectable="0" parent="QsFlmGTLFdpribKX7LvX-39">
          <mxGeometry x="-0.2619" y="-1" relative="1" as="geometry">
            <mxPoint x="-9" y="8" as="offset" />
          </mxGeometry>
        </mxCell>
        <mxCell id="60e70716793133e9-5" value="&lt;font style=&quot;font-size: 12px;&quot;&gt;has a timer&lt;/font&gt;" style="rhombus;whiteSpace=wrap;html=1;rounded=0;shadow=1;labelBackgroundColor=none;strokeWidth=1;fontFamily=Verdana;fontSize=8;align=center;" parent="1" vertex="1">
          <mxGeometry x="200" y="220" width="100" height="60" as="geometry" />
        </mxCell>
        <mxCell id="QsFlmGTLFdpribKX7LvX-38" style="edgeStyle=orthogonalEdgeStyle;rounded=0;orthogonalLoop=1;jettySize=auto;html=1;entryX=0.5;entryY=0;entryDx=0;entryDy=0;fontSize=12;" edge="1" parent="1" source="60e70716793133e9-9" target="60e70716793133e9-5">
          <mxGeometry relative="1" as="geometry" />
        </mxCell>
        <mxCell id="60e70716793133e9-9" value="&lt;font style=&quot;font-size: 12px;&quot;&gt;put api call&lt;/font&gt;" style="whiteSpace=wrap;html=1;rounded=0;shadow=1;labelBackgroundColor=none;strokeWidth=1;fontFamily=Verdana;fontSize=8;align=center;" parent="1" vertex="1">
          <mxGeometry x="40" y="220" width="120" height="40" as="geometry" />
        </mxCell>
        <mxCell id="60e70716793133e9-40" style="edgeStyle=orthogonalEdgeStyle;rounded=0;html=1;labelBackgroundColor=none;startSize=5;endArrow=classicThin;endFill=1;endSize=5;jettySize=auto;orthogonalLoop=1;strokeWidth=1;fontFamily=Verdana;fontSize=8;exitX=0;exitY=0.5;exitDx=0;exitDy=0;" parent="1" source="QsFlmGTLFdpribKX7LvX-6" target="60e70716793133e9-13" edge="1">
          <mxGeometry relative="1" as="geometry">
            <mxPoint x="410" y="540" as="sourcePoint" />
            <Array as="points">
              <mxPoint x="340" y="560" />
            </Array>
          </mxGeometry>
        </mxCell>
        <mxCell id="QsFlmGTLFdpribKX7LvX-8" value="yes" style="edgeLabel;html=1;align=center;verticalAlign=middle;resizable=0;points=[];" vertex="1" connectable="0" parent="60e70716793133e9-40">
          <mxGeometry x="-0.7033" relative="1" as="geometry">
            <mxPoint x="-2" y="-10" as="offset" />
          </mxGeometry>
        </mxCell>
        <mxCell id="60e70716793133e9-13" value="&lt;font style=&quot;font-size: 12px;&quot;&gt;show visit preview&lt;/font&gt;" style="whiteSpace=wrap;html=1;rounded=0;shadow=1;labelBackgroundColor=none;strokeWidth=1;fontFamily=Verdana;fontSize=8;align=center;" parent="1" vertex="1">
          <mxGeometry x="280" y="600" width="120" height="40" as="geometry" />
        </mxCell>
        <mxCell id="60e70716793133e9-51" value="Yes" style="edgeStyle=orthogonalEdgeStyle;rounded=0;html=1;labelBackgroundColor=none;startSize=5;endArrow=classicThin;endFill=1;endSize=5;jettySize=auto;orthogonalLoop=1;strokeWidth=1;fontFamily=Verdana;fontSize=8" parent="1" source="60e70716793133e9-21" edge="1">
          <mxGeometry x="-0.6924" y="-20" relative="1" as="geometry">
            <Array as="points">
              <mxPoint x="230" y="1149.9999999999998" />
              <mxPoint x="230" y="950" />
            </Array>
            <mxPoint as="offset" />
            <mxPoint x="260" y="950" as="targetPoint" />
          </mxGeometry>
        </mxCell>
        <mxCell id="60e70716793133e9-57" style="edgeStyle=orthogonalEdgeStyle;rounded=0;html=1;labelBackgroundColor=none;startSize=5;endArrow=classicThin;endFill=1;endSize=5;jettySize=auto;orthogonalLoop=1;strokeWidth=1;fontFamily=Verdana;fontSize=8" parent="1" target="60e70716793133e9-30" edge="1">
          <mxGeometry relative="1" as="geometry">
            <mxPoint x="340" y="640" as="sourcePoint" />
          </mxGeometry>
        </mxCell>
        <mxCell id="60e70716793133e9-30" value="End" style="strokeWidth=1;html=1;shape=mxgraph.flowchart.terminator;whiteSpace=wrap;rounded=0;shadow=1;labelBackgroundColor=none;fontFamily=Verdana;fontSize=8;align=center;" parent="1" vertex="1">
          <mxGeometry x="310" y="700" width="60" height="30" as="geometry" />
        </mxCell>
        <mxCell id="QsFlmGTLFdpribKX7LvX-32" style="edgeStyle=orthogonalEdgeStyle;rounded=0;orthogonalLoop=1;jettySize=auto;html=1;entryX=0.5;entryY=0.032;entryDx=0;entryDy=0;entryPerimeter=0;fontSize=12;" edge="1" parent="1" source="QsFlmGTLFdpribKX7LvX-5" target="QsFlmGTLFdpribKX7LvX-16">
          <mxGeometry relative="1" as="geometry" />
        </mxCell>
        <mxCell id="QsFlmGTLFdpribKX7LvX-5" value="set time out" style="shape=parallelogram;perimeter=parallelogramPerimeter;whiteSpace=wrap;html=1;fixedSize=1;" vertex="1" parent="1">
          <mxGeometry x="395" y="320" width="110" height="40" as="geometry" />
        </mxCell>
        <mxCell id="QsFlmGTLFdpribKX7LvX-12" style="edgeStyle=orthogonalEdgeStyle;rounded=0;orthogonalLoop=1;jettySize=auto;html=1;" edge="1" parent="1" source="QsFlmGTLFdpribKX7LvX-6">
          <mxGeometry relative="1" as="geometry">
            <mxPoint x="670" y="560" as="targetPoint" />
          </mxGeometry>
        </mxCell>
        <mxCell id="QsFlmGTLFdpribKX7LvX-13" value="no" style="edgeLabel;html=1;align=center;verticalAlign=middle;resizable=0;points=[];" vertex="1" connectable="0" parent="QsFlmGTLFdpribKX7LvX-12">
          <mxGeometry x="-0.2467" y="2" relative="1" as="geometry">
            <mxPoint as="offset" />
          </mxGeometry>
        </mxCell>
        <mxCell id="QsFlmGTLFdpribKX7LvX-6" value="message received" style="rhombus;whiteSpace=wrap;html=1;" vertex="1" parent="1">
          <mxGeometry x="530" y="520" width="80" height="80" as="geometry" />
        </mxCell>
        <mxCell id="QsFlmGTLFdpribKX7LvX-15" value="show patient list" style="rounded=1;whiteSpace=wrap;html=1;" vertex="1" parent="1">
          <mxGeometry x="670" y="535" width="120" height="50" as="geometry" />
        </mxCell>
        <mxCell id="QsFlmGTLFdpribKX7LvX-33" style="edgeStyle=orthogonalEdgeStyle;rounded=0;orthogonalLoop=1;jettySize=auto;html=1;entryX=0.5;entryY=0;entryDx=0;entryDy=0;fontSize=12;" edge="1" parent="1" source="QsFlmGTLFdpribKX7LvX-16" target="QsFlmGTLFdpribKX7LvX-6">
          <mxGeometry relative="1" as="geometry" />
        </mxCell>
        <mxCell id="QsFlmGTLFdpribKX7LvX-16" value="after 5s" style="shape=or;whiteSpace=wrap;html=1;" vertex="1" parent="1">
          <mxGeometry x="410" y="385" width="80" height="75" as="geometry" />
        </mxCell>
        <mxCell id="QsFlmGTLFdpribKX7LvX-28" style="edgeStyle=orthogonalEdgeStyle;rounded=0;orthogonalLoop=1;jettySize=auto;html=1;fontSize=12;entryX=0;entryY=0.5;entryDx=0;entryDy=0;entryPerimeter=0;" edge="1" parent="1" source="QsFlmGTLFdpribKX7LvX-17" target="60e70716793133e9-30">
          <mxGeometry relative="1" as="geometry">
            <mxPoint x="120" y="720" as="targetPoint" />
            <Array as="points">
              <mxPoint x="170" y="460" />
              <mxPoint x="170" y="715" />
            </Array>
          </mxGeometry>
        </mxCell>
        <mxCell id="QsFlmGTLFdpribKX7LvX-31" value="no" style="edgeLabel;html=1;align=center;verticalAlign=middle;resizable=0;points=[];fontSize=12;" vertex="1" connectable="0" parent="QsFlmGTLFdpribKX7LvX-28">
          <mxGeometry x="-0.2802" y="-1" relative="1" as="geometry">
            <mxPoint as="offset" />
          </mxGeometry>
        </mxCell>
        <mxCell id="QsFlmGTLFdpribKX7LvX-29" style="edgeStyle=orthogonalEdgeStyle;rounded=0;orthogonalLoop=1;jettySize=auto;html=1;entryX=-0.001;entryY=0.607;entryDx=0;entryDy=0;entryPerimeter=0;fontSize=12;" edge="1" parent="1" source="QsFlmGTLFdpribKX7LvX-17" target="60e70716793133e9-13">
          <mxGeometry relative="1" as="geometry" />
        </mxCell>
        <mxCell id="QsFlmGTLFdpribKX7LvX-30" value="yes" style="edgeLabel;html=1;align=center;verticalAlign=middle;resizable=0;points=[];fontSize=12;" vertex="1" connectable="0" parent="QsFlmGTLFdpribKX7LvX-29">
          <mxGeometry x="-0.3816" y="-1" relative="1" as="geometry">
            <mxPoint x="-19" y="2" as="offset" />
          </mxGeometry>
        </mxCell>
        <mxCell id="QsFlmGTLFdpribKX7LvX-17" value="message received" style="rhombus;whiteSpace=wrap;html=1;" vertex="1" parent="1">
          <mxGeometry x="210" y="420" width="80" height="80" as="geometry" />
        </mxCell>
        <mxCell id="QsFlmGTLFdpribKX7LvX-34" value="&lt;br&gt;" style="shape=umlActor;verticalLabelPosition=bottom;verticalAlign=top;html=1;outlineConnect=0;fontSize=12;" vertex="1" parent="1">
          <mxGeometry x="145" y="60" width="30" height="60" as="geometry" />
        </mxCell>
      </root>
    </mxGraphModel>
  </diagram>
</mxfile>
